<svg 
          width="16.5" 
          height="22" fill="none" 
          xmlns="http://www.w3.org/2000/svg">
          <path d="M 8.25 22 C 8.25 22 16.5 14.181750178337097 16.5 8.25 C 16.499999967395723 6.061963960528374 15.630805805325508 3.963544115424156 14.083630681037903 2.416368991136551 C 12.536455556750298 0.8691938668489456 10.438036039471626 -2.2898349882893854e-16 8.25 0 C 6.061963960528374 -1.1449174941446927e-15 3.963544115424156 0.8691938668489456 2.416368991136551 2.416368991136551 C 0.8691938668489456 3.963544115424156 3.2604277722114716e-8 6.061963960528374 0 8.25 C 6.106226635438361e-16 14.181750178337097 8.25 22 8.25 22 Z M 8.25 12.375 C 7.155981980264187 12.375 6.106772221624851 11.940403558313847 5.333184659481049 11.166815996170044 C 4.559597097337246 10.393228434026241 4.125 9.344018019735813 4.125 8.25 C 4.125 7.155981980264187 4.559597097337246 6.106772221624851 5.333184659481049 5.333184659481049 C 6.106772221624851 4.559597097337246 7.155981980264187 4.125000000000001 8.25 4.125 C 9.344018019735813 4.125000000000001 10.393228434026241 4.559597097337246 11.166815996170044 5.333184659481049 C 11.940403558313847 6.106772221624851 12.375 7.155981980264187 12.375 8.25 C 12.375 9.344018019735813 11.940403558313847 10.393228434026241 11.166815996170044 11.166815996170044 C 10.393228434026241 11.940403558313847 9.344018019735813 12.375 8.25 12.375 Z" fill="rgb(0,0,0)"/>
        </svg>