<svg width="40" height="40" viewBox="0 0 40 40" fill="none" xmlns="http://www.w3.org/2000/svg">
<path opacity="0.6" fill-rule="evenodd" clip-rule="evenodd" d="M10.8398 6.66666C10.192 6.66666 9.79194 7.37329 10.1252 7.92873L14.2713 14.8389C13.2892 15.3946 12.3957 16.0885 11.6171 16.8943L7.26687 9.64369C5.60057 6.86651 7.60107 3.33333 10.8398 3.33333H14.8265C16.5505 3.33333 18.1528 4.22143 19.0665 5.68333L20.0076 7.18919L20.9488 5.68333C21.8625 4.22143 23.4648 3.33333 25.1888 3.33333H29.1591C32.398 3.33333 34.3985 6.86658 32.7321 9.64376L28.388 16.8838C27.6086 16.0792 26.7143 15.3864 25.7318 14.832L29.8738 7.92874C30.207 7.37331 29.807 6.66666 29.1591 6.66666H25.1888C24.6141 6.66666 24.08 6.96269 23.7755 7.45L21.973 10.3338L24.376 14.1785C23.0268 13.6334 21.5525 13.3333 20.0081 13.3333C19.9778 13.3333 19.9475 13.3334 19.9171 13.3337L16.2398 7.45C15.9353 6.96269 15.4012 6.66666 14.8265 6.66666H10.8398Z" fill="#C4C4C4"/>
<path fill-rule="evenodd" clip-rule="evenodd" d="M20.0081 36.6667C26.4515 36.6667 31.6748 31.4433 31.6748 25C31.6748 18.5567 26.4515 13.3333 20.0081 13.3333C13.5648 13.3333 8.34147 18.5567 8.34147 25C8.34147 31.4433 13.5648 36.6667 20.0081 36.6667ZM20.0081 33.3333C24.6105 33.3333 28.3415 29.6023 28.3415 25C28.3415 20.3977 24.6105 16.6667 20.0081 16.6667C15.4058 16.6667 11.6748 20.3977 11.6748 25C11.6748 29.6023 15.4058 33.3333 20.0081 33.3333ZM20.0081 28.3333C21.8491 28.3333 23.3415 26.841 23.3415 25C23.3415 23.159 21.8491 21.6667 20.0081 21.6667C18.1671 21.6667 16.6748 23.159 16.6748 25C16.6748 26.841 18.1671 28.3333 20.0081 28.3333Z" fill="#C4C4C4"/>
</svg>
