<svg xmlns="http://www.w3.org/2000/svg" width="17" height="17" fill="none"><path fill="#8E8E93" d="M 8.5 17 C 13.194427490234375 17 17 13.1943359375 17 8.5 C 17 3.8056640625 13.194427490234375 0 8.5 0 C 3.805572509765625 0 0 3.8056640625 0 8.5 C 0 13.1943359375 3.805572509765625 17 8.5 17 Z M 12.26568603515625 4.734375 C 12.578125 5.046630859375 12.578125 5.55322265625 12.26568603515625 5.86572265625 L 9.631378173828125 8.5 L 12.26568603515625 11.13427734375 C 12.578094482421875 11.44677734375 12.578094482421875 11.953369140625 12.26568603515625 12.265625 C 11.953277587890625 12.578125 11.446746826171875 12.578125 11.134307861328125 12.265625 L 8.5 9.63134765625 L 5.865692138671875 12.265625 C 5.55328369140625 12.578125 5.0467529296875 12.578125 4.73431396484375 12.265625 C 4.421905517578125 11.953369140625 4.421905517578125 11.44677734375 4.73431396484375 11.13427734375 L 7.368621826171875 8.5 L 4.73431396484375 5.86572265625 C 4.421905517578125 5.55322265625 4.421905517578125 5.046630859375 4.73431396484375 4.734375 C 5.046722412109375 4.421875 5.553253173828125 4.421875 5.865692138671875 4.734375 L 8.5 7.36865234375 L 11.134307861328125 4.734375 C 11.446746826171875 4.421875 11.953277587890625 4.421875 12.26568603515625 4.734375 Z"/></svg>