<svg 
          width="32" 
          height="31.99866485595703" fill="none" 
          xmlns="http://www.w3.org/2000/svg">
          <path d="M 20 21.331999037036173 L 20 18.665332582305957 C 20.599999984105427 18.367999266086766 22.315999646981556 16.325333251475143 22.495999654134113 14.72933334271527 C 22.967999656995136 14.693333344642607 23.709332187970478 14.259999731334469 23.927998860677082 12.549333210797561 C 24.045332193374634 11.630666603155781 23.578666826089222 11.114666721015734 23.296000162760414 10.952000065449315 C 23.296000162760414 10.952000065449315 24 9.614666492536253 24 7.999999999973472 C 24 4.76266695953483 22.729333241780598 1.9999998410476612 20 1.9999998410476612 C 20 1.9999998410476612 19.052000045776367 0 16 0 C 10.343999862670898 0 8 3.628000288951264 8 7.999999999973472 C 8 9.471999846109146 8.703999837239582 10.952000065449315 8.703999837239582 10.952000065449315 C 8.421333173910776 11.114666721015734 7.9546665350596095 11.631999919217009 8.07199986775716 12.549333210797561 C 8.290666540463764 14.259999731334469 9.032000343004862 14.693333344642607 9.504000345865885 14.72933334271527 C 9.684000353018442 16.325333251475143 11.400000015894571 18.367999266086766 12 18.665332582305957 L 12 21.331999037036173 C 10.666666666666666 25.331998719131494 0 22.66533226440128 0 31.99866485595703 L 32 31.99866485595703 C 32 22.66533226440128 21.333333333333332 25.331998719131494 20 21.331999037036173 Z" fill="rgb(4.000000236555934,4.000000236555934,21.000000648200512)"/>
        </svg>