<svg xmlns="http://www.w3.org/2000/svg" width="32" height="32" fill="none" viewBox="0 0 32 32"><path fill="#C4C4C4" d="M20 21.3333V18.6667C20.6 18.3693 22.316 16.3267 22.496 14.7307C22.968 14.6947 23.7093 14.2613 23.928 12.5507C24.0453 11.632 23.5787 11.116 23.296 10.9533C23.296 10.9533 24 9.61601 24 8.00134C24 4.76401 22.7293 2.00134 20 2.00134C20 2.00134 19.052 0.00134277 16 0.00134277C10.344 0.00134277 8 3.62934 8 8.00134C8 9.47334 8.704 10.9533 8.704 10.9533C8.42133 11.116 7.95467 11.6333 8.072 12.5507C8.29067 14.2613 9.032 14.6947 9.504 14.7307C9.684 16.3267 11.4 18.3693 12 18.6667V21.3333C10.6667 25.3333 0 22.6667 0 32H32C32 22.6667 21.3333 25.3333 20 21.3333Z"/></svg>