<svg xmlns="http://www.w3.org/2000/svg" width="381" height="133" fill="none" viewBox="0 0 381 133"><path fill="url(#paint0_linear_816_2529)" fill-opacity=".85" d="M381 109V18.5C369.518 -1.47852 341.022 -2.38013 328.3 16.8326L326.787 19.1171C316.167 35.1558 294.059 38.5966 279.067 26.544L261.173 12.1591C242.92 -2.51544 217.253 -3.64212 197.784 9.37649L166.528 30.2765C155.216 37.8402 140.296 37.1464 129.735 28.5658C120.955 21.4324 108.988 19.6455 98.5075 23.9032L63.0438 38.3103C55.9404 41.1961 47.8242 39.9243 41.9439 35.0041C33.5458 27.9771 21.1301 28.696 13.5992 36.6453L0 51V109C0 122.255 10.7452 133 24 133H357C370.255 133 381 122.255 381 109Z"/><defs><linearGradient id="paint0_linear_816_2529" x1="190.5" x2="190.5" y1="-25" y2="133" gradientUnits="userSpaceOnUse"><stop offset="1" stop-color="#1BE07C"/><stop offset="1" stop-color="#1BE07C" stop-opacity="0"/></linearGradient></defs></svg>