<svg 
          width="27.184730529785156" 
          height="27.920734405517578" fill="none" 
          xmlns="http://www.w3.org/2000/svg">
          <path d="M 24.58716583251953 14.720367431640625 L 24.58716583251953 13.190366744995117 L 26.507165908813477 11.510367393493652 C 26.86109060049057 11.198417454957962 27.093345381319523 10.771393954753876 27.16288185119629 10.304767608642578 C 27.232418321073055 9.83814126253128 27.1347586363554 9.361955165863037 26.887165069580078 8.960367202758789 L 24.52716636657715 4.960367679595947 C 24.351803690195084 4.6566301882267 24.09965068101883 4.404348075389862 23.796003341674805 4.228829383850098 C 23.49235600233078 4.053310692310333 23.14789044857025 3.9607271831773687 22.797164916992188 3.960367441177368 C 22.579814985394478 3.958702310337685 22.363647639751434 3.99247869849205 22.15716552734375 4.060367584228516 L 19.72716522216797 4.880367755889893 C 19.307625263929367 4.601575136184692 18.86999151110649 4.35102117061615 18.417165756225586 4.130367755889893 L 17.90716552734375 1.6103675365447998 C 17.81572089344263 1.1499724090099335 17.565258711576462 0.736407995223999 17.199621200561523 0.44206979870796204 C 16.833983689546585 0.14773160219192505 16.376469045877457 -0.008626187278423458 15.907166481018066 0.00036743091186508536 L 11.227167129516602 0.00036743091186508536 C 10.757864564657211 -0.008626187278423458 10.300349920988083 0.14773160219192505 9.934712409973145 0.44206979870796204 C 9.569074898958206 0.736407995223999 9.31861176341772 1.1499724090099335 9.227167129516602 1.6103675365447998 L 8.717166900634766 4.130367755889893 C 8.261099994182587 4.3509677946567535 7.820136278867722 4.601515531539917 7.397167205810547 4.880367755889893 L 5.017166614532471 4.020367622375488 C 4.808463752269745 3.9659911915659904 4.592339724302292 3.945729371160269 4.377166748046875 3.960367441177368 C 4.026441216468811 3.9607271831773687 3.681976854801178 4.053310692310333 3.3783295154571533 4.228829383850098 C 3.0746821761131287 4.404348075389862 2.8225291669368744 4.6566301882267 2.6471664905548096 4.960367679595947 L 0.28716668486595154 8.960367202758789 C 0.053753599524497986 9.36135596036911 -0.03298173472285271 9.83102372288704 0.041815850883722305 10.288930892944336 C 0.11661343649029732 10.746838063001633 0.3482898771762848 11.16449373960495 0.6971665620803833 11.470367431640625 L 2.5871665477752686 13.200366973876953 L 2.5871665477752686 14.730367660522461 L 0.6971665620803833 16.410367965698242 C 0.3384353220462799 16.718366712331772 0.10042200610041618 17.14349675178528 0.025365207344293594 17.610313415527344 C -0.049691591411828995 18.07713007926941 0.043062448501586914 18.555441975593567 0.28716668486595154 18.96036720275879 L 2.6471664905548096 22.96036720275879 C 2.8225291669368744 23.264104694128036 3.0746821761131287 23.516387283802032 3.3783295154571533 23.691905975341797 C 3.681976854801178 23.86742466688156 4.026441216468811 23.96000746075879 4.377166748046875 23.96036720275879 C 4.594516679644585 23.962032333598472 4.810684502124786 23.928255707025528 5.017166614532471 23.860366821289062 L 7.447166442871094 23.040367126464844 C 7.866706401109695 23.319159746170044 8.304341107606888 23.569713711738586 8.757166862487793 23.790367126464844 L 9.267167091369629 26.310367584228516 C 9.358611725270748 26.770762711763382 9.609074860811234 27.184326201677322 9.974712371826172 27.47866439819336 C 10.34034988284111 27.773002594709396 10.797864526510239 27.929359905421734 11.267167091369629 27.920366287231445 L 15.987166404724121 27.920366287231445 C 16.45646896958351 27.929359905421734 16.91398361325264 27.773002594709396 17.279621124267578 27.47866439819336 C 17.645258635282516 27.184326201677322 17.895720817148685 26.770762711763382 17.987165451049805 26.310367584228516 L 18.49716567993164 23.790367126464844 C 18.95323258638382 23.569767087697983 19.394196301698685 23.31921935081482 19.81716537475586 23.040367126464844 L 22.237165451049805 23.860366821289062 C 22.44364756345749 23.928255707025528 22.659816816449165 23.962032333598472 22.877166748046875 23.96036720275879 C 23.22789227962494 23.96000746075879 23.572355926036835 23.86742466688156 23.87600326538086 23.691905975341797 C 24.179650604724884 23.516387283802032 24.43180361390114 23.264104694128036 24.607166290283203 22.96036720275879 L 26.887165069580078 18.96036720275879 C 27.12057815492153 18.559378445148468 27.20731444656849 18.08971068263054 27.132516860961914 17.631803512573242 C 27.05771927535534 17.173896342515945 26.826041907072067 16.756240665912628 26.47716522216797 16.450366973876953 L 24.58716583251953 14.720367431640625 Z M 22.797164916992188 21.96036720275879 L 19.36716651916504 20.80036735534668 C 18.564231157302856 21.480475425720215 17.64656239748001 22.0121129155159 16.65716552734375 22.3703670501709 L 15.94716739654541 25.96036720275879 L 11.227167129516602 25.96036720275879 L 10.517167091369629 22.410367965698242 C 9.53558874130249 22.04194575548172 8.622884213924408 21.511223793029785 7.817166328430176 20.84036636352539 L 4.377166748046875 21.96036720275879 L 2.0171663761138916 17.96036720275879 L 4.737166881561279 15.560367584228516 C 4.552263781428337 14.525226593017578 4.552263781428337 13.465508460998535 4.737166881561279 12.430367469787598 L 2.0171663761138916 9.960367202758789 L 4.377166748046875 5.960367679595947 L 7.807167053222656 7.120367527008057 C 8.610102415084839 6.4402594566345215 9.527770221233368 5.908621966838837 10.517167091369629 5.550367832183838 L 11.227167129516602 1.9603674411773682 L 15.94716739654541 1.9603674411773682 L 16.65716552734375 5.5103678703308105 C 17.63874387741089 5.878790080547333 18.55144840478897 6.409510135650635 19.357166290283203 7.080367565155029 L 22.797164916992188 5.960367679595947 L 25.15716552734375 9.960367202758789 L 22.437166213989258 12.360366821289062 C 22.6220693141222 13.3955078125 22.6220693141222 14.45522689819336 22.437166213989258 15.490367889404297 L 25.15716552734375 17.96036720275879 L 22.797164916992188 21.96036720275879 Z" fill="rgb(0,0,0)"/>
        </svg>