<svg xmlns="http://www.w3.org/2000/svg" width="27" height="28" fill="none"><path fill="#1BE07C" d="M 23.822338998016978 15.370831276145328 C 23.880167223624547 14.933331276145328 23.909083323741783 14.48125 23.909083323741783 14 C 23.909083323741783 13.533333362307813 23.880166895098473 13.066665942304693 23.807881610396176 12.629165942304693 L 26.742665118265112 10.324998783071884 C 27.002892149656194 10.120832123648837 27.07517863536364 9.727082645189459 26.916151012249987 9.435415985766411 L 24.14039601074513 4.593749956538281 C 23.966911333922422 4.272916637692187 23.605484689598324 4.170832916825199 23.28742944337102 4.272916246536722 L 19.832189632279825 5.6729162465367216 C 19.10933679602819 5.118749608844534 18.343114295866574 4.65208286249805 17.490147987004786 4.302082884228909 L 16.969693062514892 0.5979164203835956 C 16.911864836907323 0.24791644211445485 16.622724355150275 0 16.275755001504862 0 L 10.72424499849514 0 C 10.377275644849725 0 10.10259117198111 0.24791644211445485 10.044762946373542 0.5979164203835956 L 9.52430940061602 4.302082884228909 C 8.671343091754233 4.65208286249805 7.890662169922535 5.133332927690628 7.182266376608611 5.6729162465367216 L 3.7270293229821516 4.272916246536722 C 3.4089740767548484 4.156249587113675 3.047548121796937 4.272916637692187 2.8740634449742295 4.593749956538281 L 0.11276554026381075 9.435415985766411 C -0.060719136558896436 9.741665964035553 -0.0028910725215268718 10.120832123648837 0.2862500662876651 10.324998783071884 L 3.221032475479245 12.629165942304693 C 3.148747190776947 13.066665942304693 3.0909194337229566 13.547916681153906 3.0909194337229566 14 C 3.0909194337229566 14.452083318846094 3.119833104901529 14.933331276145328 3.192118389603827 15.370831276145328 L 0.25733598041224715 17.67500052154062 C -0.002891050978833576 17.87916718096367 -0.07517616872525877 18.272915268648056 0.0838514543883928 18.564581928071103 L 2.8596060573534285 23.406250738849213 C 3.0330907341761355 23.727084057695308 3.3945173785002316 23.829166387787307 3.712572624727535 23.727083058075785 L 7.16780898898781 22.327081667300792 C 7.890661825239443 22.88124830499298 8.656885704133432 23.34791574672696 9.509852012995218 23.6979157249961 L 10.03030693748511 27.402083579616402 C 10.102592222187408 27.75208355788554 10.377275644849725 28 10.72424499849514 28 L 16.275755001504862 28 C 16.622724355150275 28 16.911865884420784 27.75208355788554 16.955237053626462 27.402083579616402 L 17.475690599383984 23.6979157249961 C 18.328656908245772 23.34791574672696 19.109339208809835 22.88124830499298 19.81773500212376 22.327081667300792 L 23.27297205575022 23.727083058075785 C 23.591027301977523 23.84374971749883 23.95245394630162 23.727084057695308 24.125938623124327 23.406250738849213 L 26.901693624629186 18.564581928071103 C 27.075178301451892 18.24374860922501 27.0028918049731 17.87916718096367 26.72820773064431 17.67500052154062 L 23.822338998016978 15.370831276145328 Z M 13.500000000000002 19.250000347693746 C 10.637502740868886 19.250000347693746 8.295459027495294 16.887499913076564 8.295459027495294 14 C 8.295459027495294 11.112500086923436 10.637502740868886 8.749998956918757 13.500000000000002 8.749998956918757 C 16.362497259131118 8.749998956918757 18.70454097250471 11.112500086923436 18.70454097250471 14 C 18.70454097250471 16.887499913076564 16.362497259131118 19.250000347693746 13.500000000000002 19.250000347693746 Z"/></svg>