<svg 
          width="12.0003080368042" 
          height="12.0003080368042" fill="none" 
          xmlns="http://www.w3.org/2000/svg">
          <path d="M 6.000002384185791 12.000001907348633 C 4.813314437866211 12.000001907348633 3.6532756090164185 11.648107588291168 2.6665806770324707 10.988819122314453 C 1.679885745048523 10.329530656337738 0.9108512997627258 9.392459154129028 0.45672550797462463 8.296102523803711 C 0.0025997161865234375 7.1997458934783936 -0.11622031033039093 5.993346691131592 0.11529101431369781 4.829460620880127 C 0.34680233895778656 3.665574550628662 0.9182466864585876 2.5964768528938293 1.7573617696762085 1.7573617696762085 C 2.5964768528938293 0.9182466864585876 3.665574550628662 0.34680233895778656 4.829460620880127 0.11529101431369781 C 5.993346691131592 -0.11622031033039093 7.1997458934783936 0.0025997161865234375 8.296102523803711 0.45672550797462463 C 9.392459154129028 0.9108512997627258 10.329530656337738 1.679885745048523 10.988819122314453 2.6665806770324707 C 11.648107588291168 3.6532756090164185 12.00000190734863 4.813314437866211 12.000001907348633 6.000002384185791 C 12.008024469949305 6.790163516998291 11.858309090137482 7.5739840269088745 11.559621810913086 8.305561065673828 C 11.26093453168869 9.037138104438782 10.819279968738556 9.701765716075897 10.260522842407227 10.260522842407227 C 9.701765716075897 10.819279968738556 9.037138104438782 11.26093453168869 8.305561065673828 11.559621810913086 C 7.5739840269088745 11.858309090137482 6.790163516998291 12.008024469949305 6.000002384185791 12.000001907348633 L 6.000002384185791 12.000001907348633 Z M 6.000002384185791 2.000002384185791 C 5.471347510814667 1.987687130458653 4.945687651634216 2.082733377814293 4.454818248748779 2.279392719268799 C 3.9639488458633423 2.4760520607233047 3.518070936203003 2.7702372074127197 3.1441540718078613 3.1441540718078613 C 2.7702372074127197 3.518070936203003 2.4760520607233047 3.9639488458633423 2.279392719268799 4.454818248748779 C 2.082733377814293 4.945687651634216 1.987687130458653 5.471347510814667 2.000002384185791 6.000002384185791 C 1.987687130458653 6.528657257556915 2.082733377814293 7.054316163063049 2.279392719268799 7.545185565948486 C 2.4760520607233047 8.036054968833923 2.7702372074127197 8.481933355331421 3.1441540718078613 8.855850219726562 C 3.518070936203003 9.229767084121704 3.9639488458633423 9.523952230811119 4.454818248748779 9.720611572265625 C 4.945687651634216 9.917270913720131 5.471347510814667 10.01231716107577 6.000002384185791 10.000001907348633 C 6.528657257556915 10.01231716107577 7.054316163063049 9.917270913720131 7.545185565948486 9.720611572265625 C 8.036054968833923 9.523952230811119 8.481933355331421 9.229767084121704 8.855850219726562 8.855850219726562 C 9.229767084121704 8.481933355331421 9.523952230811119 8.036054968833923 9.720611572265625 7.545185565948486 C 9.917270913720131 7.054316163063049 10.01231716107577 6.528657257556915 10.000001907348633 6.000002384185791 C 10.01231716107577 5.471347510814667 9.917270913720131 4.945687651634216 9.720611572265625 4.454818248748779 C 9.523952230811119 3.9639488458633423 9.229767084121704 3.518070936203003 8.855850219726562 3.1441540718078613 C 8.481933355331421 2.7702372074127197 8.036054968833923 2.4760520607233047 7.545185565948486 2.279392719268799 C 7.054316163063049 2.082733377814293 6.528657257556915 1.987687130458653 6.000002384185791 2.000002384185791 Z" fill="rgb(0,0,0)"/>
        </svg>