<svg width="28" height="34" fill="none" xmlns="http://www.w3.org/2000/svg"><path opacity=".6" fill-rule="evenodd" clip-rule="evenodd" d="M4.84 3.667a.833.833 0 0 0-.715 1.262l4.146 6.91a11.713 11.713 0 0 0-2.654 2.055l-4.35-7.25C-.4 3.867 1.6.334 4.84.334h3.987a5 5 0 0 1 4.24 2.35l.94 1.505.942-1.506a5 5 0 0 1 4.24-2.35h3.97c3.239 0 5.24 3.534 3.573 6.31l-4.344 7.24a11.716 11.716 0 0 0-2.656-2.051l4.142-6.903a.833.833 0 0 0-.715-1.262h-3.97c-.575 0-1.109.296-1.413.783l-1.803 2.884 2.403 3.845a11.634 11.634 0 0 0-4.459-.845L10.24 4.45a1.667 1.667 0 0 0-1.413-.783H4.84Z" fill="#C4C4C4"/><path fill-rule="evenodd" clip-rule="evenodd" d="M13.667 33.333c6.443 0 11.666-5.223 11.666-11.666C25.333 15.223 20.11 10 13.667 10 7.223 10 2 15.223 2 21.667c0 6.443 5.223 11.666 11.667 11.666Zm0-3.333a8.333 8.333 0 1 0 0-16.667 8.333 8.333 0 0 0 0 16.667Zm.341-4.667a3.333 3.333 0 1 0 0-6.666 3.333 3.333 0 0 0 0 6.666Z" fill="#C4C4C4"/></svg>