<svg xmlns="http://www.w3.org/2000/svg" width="44" height="42" fill="none" viewBox="0 0 44 42"><path fill="#1BE07C" fill-rule="evenodd" d="M12.8 3.39998L14.536 2.09802C16.5711 0.571678 19.3475 0.494614 21.4642 1.90571L29.094 6.99228C30.0796 7.64935 31.2377 7.99998 32.4222 7.99998H36C40.4183 7.99998 44 11.5817 44 16V17C44 21.9705 39.9706 26 35 26H10C4.47715 26 0 21.5228 0 16V5.99998C0 3.79084 1.79086 1.99998 4 1.99998C4.86548 1.99998 5.70762 2.28069 6.4 2.79998L7.2 3.39998C8.85926 4.64442 11.1407 4.64442 12.8 3.39998ZM26.8752 10.3205L19.2454 5.23391C18.5398 4.76355 17.6143 4.78924 16.936 5.29802L15.2 6.59998C12.1185 8.91109 7.88148 8.91109 4.8 6.59998L4 5.99998V16C4 19.3137 6.68629 22 10 22H35C37.7614 22 40 19.7614 40 17V16C40 13.7908 38.2091 12 36 12H32.4222C30.448 12 28.5179 11.4156 26.8752 10.3205ZM6 31C6 30.4477 6.44772 30 7 30H37C37.5523 30 38 30.4477 38 31V33C38 33.5523 37.5523 34 37 34H7C6.44772 34 6 33.5523 6 33V31ZM7 38C6.44772 38 6 38.4477 6 39V41C6 41.5523 6.44772 42 7 42H21C21.5523 42 22 41.5523 22 41V39C22 38.4477 21.5523 38 21 38H7Z" clip-rule="evenodd"/></svg>