<svg 
          width="13.169775009155273" 
          height="22.33156394958496" fill="none" 
          xmlns="http://www.w3.org/2000/svg">
          <path d="M 0.5848884582519531 0.5875245928764343 C 0.3994813561439514 0.7725519239902496 0.2523862347006798 0.9923292696475983 0.1520233154296875 1.2342759370803833 C 0.05166039615869522 1.4762226045131683 -3.552713678800501e-15 1.7355875372886658 0 1.997524380683899 C -3.552713678800501e-15 2.259461224079132 0.05166039615869522 2.518826276063919 0.1520233154296875 2.760772943496704 C 0.2523862347006798 3.002719610929489 0.3994813561439514 3.2224970161914825 0.5848884582519531 3.407524347305298 L 8.344886779785156 11.167524337768555 L 0.5848884582519531 18.92752456665039 C 0.21093320846557617 19.301479816436768 0.00084686279296875 19.808669924736023 0.00084686279296875 20.337522506713867 C 0.00084686279296875 20.86637508869171 0.21093320846557617 21.373570919036865 0.5848884582519531 21.747526168823242 C 0.9588437080383301 22.12148141860962 1.4660357236862183 22.331563949584954 1.9948883056640625 22.33156394958496 C 2.5237408876419067 22.33156394958496 3.030932903289795 22.12148141860962 3.404888153076172 21.747526168823242 L 12.584888458251953 12.567523956298828 C 12.770295560359955 12.382496625185013 12.917390681803226 12.16271921992302 13.017753601074219 11.920772552490234 C 13.118116520345211 11.67882588505745 13.169775009155273 11.419460952281952 13.169775009155273 11.157524108886719 C 13.169775009155273 10.895587265491486 13.118116520345211 10.636222332715988 13.017753601074219 10.394275665283203 C 12.917390681803226 10.152328997850418 12.770295560359955 9.932551592588425 12.584888458251953 9.74752426147461 L 3.404888153076172 0.5675241351127625 C 2.644888162612915 -0.19247585535049438 1.3648884296417236 -0.19247537851333618 0.5848884582519531 0.5875245928764343 Z" fill="rgb(0,0,0)"/>
        </svg>