<svg width="44" height="52" viewBox="0 0 44 52" fill="none" xmlns="http://www.w3.org/2000/svg">
<path d="M41.2727 21.6364C41.2727 36.9091 21.6364 50 21.6364 50C21.6364 50 2 36.9091 2 21.6364C2 16.4285 4.06883 11.4339 7.75136 7.75136C11.4339 4.06883 16.4285 2 21.6364 2C26.8443 2 31.8388 4.06883 35.5214 7.75136C39.2039 11.4339 41.2727 16.4285 41.2727 21.6364Z" stroke="#1BE07C" stroke-width="4" stroke-linecap="round" stroke-linejoin="round"/>
<path d="M21.6364 28.1818C25.2513 28.1818 28.1818 25.2513 28.1818 21.6364C28.1818 18.0214 25.2513 15.0909 21.6364 15.0909C18.0214 15.0909 15.0909 18.0214 15.0909 21.6364C15.0909 25.2513 18.0214 28.1818 21.6364 28.1818Z" stroke="#1BE07C" stroke-width="4" stroke-linecap="round" stroke-linejoin="round"/>
</svg>
