<svg width="48" height="48" viewBox="0 0 48 48" fill="none" xmlns="http://www.w3.org/2000/svg">
<path d="M26 12C28.2091 12 30 10.2091 30 8C30 5.79086 28.2091 4 26 4C23.7909 4 22 5.79086 22 8C22 10.2091 23.7909 12 26 12Z" fill="#1BE07C"/>
<path d="M27.956 24.54C28.446 25.276 29.178 25.834 30.018 26.114L35.368 27.898L36.634 24.106L31.284 22.322L27.958 17.332C27.571 16.7543 27.0412 16.2865 26.42 15.974L23.552 14.54C22.6988 14.1134 21.7207 14.0077 20.796 14.242L14.41 15.836C13.8495 15.9757 13.3258 16.2349 12.875 16.596C12.4241 16.9571 12.0567 17.4115 11.798 17.928L8.21002 25.106L11.788 26.896L15.376 19.718L19.822 18.606L16.214 35.298L8.86602 40.352L11.132 43.648L18.482 38.592C19.324 38.012 19.908 37.142 20.122 36.142L21.156 31.366L26.19 35.142L28.04 44.392L31.962 43.606L30.112 34.352C29.9178 33.388 29.3752 32.5293 28.588 31.94L24.246 28.684L25.54 20.914L27.956 24.54Z" fill="#1BE07C"/>
</svg>
