<svg 
          width="28.423999786376953" 
          height="30.27188491821289" fill="none" 
          xmlns="http://www.w3.org/2000/svg">
          <path d="M 19.74599838256836 10.41988754272461 C 20.235998392105103 11.15588754415512 20.967998683452606 11.713886946439743 21.807998657226562 11.993886947631836 L 27.158000946044922 13.777887344360352 L 28.423999786376953 9.98588752746582 L 23.07400131225586 8.201887130737305 L 19.748001098632812 3.211887836456299 C 19.36101058125496 2.634173631668091 18.83118826150894 2.16635999083519 18.209999084472656 1.8538869619369507 L 15.342000007629395 0.419886976480484 C 14.488777220249176 -0.0066724419593811035 13.510681509971619 -0.11243198066949844 12.585999488830566 0.12188663333654404 L 6.199999809265137 1.715887427330017 C 5.639487147331238 1.855537325143814 5.115827441215515 2.114812284708023 4.6649627685546875 2.4759182929992676 C 4.21409809589386 2.837024301290512 3.8467051684856415 3.2914097905158997 3.5880002975463867 3.8078866004943848 L 0 10.98588752746582 L 3.578000068664551 12.775886535644531 L 7.1660003662109375 5.5978875160217285 L 11.612000465393066 4.4858880043029785 L 8.004000663757324 21.177886962890625 L 0.6560001373291016 26.231887817382812 L 2.921999931335449 29.52788543701172 L 10.272000312805176 24.471885681152344 C 11.11400032043457 23.891885697841644 11.697999700903893 23.02188491821289 11.911999702453613 22.02188491821289 L 12.946000099182129 17.245885848999023 L 17.979999542236328 21.02188491821289 L 19.830001831054688 30.27188491821289 L 23.751998901367188 29.485885620117188 L 21.902000427246094 20.231887817382812 C 21.70775815844536 19.267888605594635 21.16521519422531 18.40922087430954 20.37799835205078 17.819887161254883 L 16.035999298095703 14.563886642456055 L 17.330001831054688 6.793886661529541 L 19.74599838256836 10.41988754272461 L 19.74599838256836 10.41988754272461 Z" fill="rgb(27.000000290572643,224.000001847744,124.00000020861626)"/>
        </svg>